# AST/ASF file generated using VICON BodyLanguage
# -----------------------------------------------
:version 1.10
:name VICON
:units
  mass 1.0
  length 0.45
  angle deg
:documentation
   .ast/.asf automatically generated from VICON data using
   VICON BodyBuilder and BodyLanguage model FoxedUp or BRILLIANT.MOD
:root
   order TX TY TZ RX RY RZ
   axis XYZ
   position 0 0 0  
   orientation 0 0 0 
:bonedata
  begin
     id 1 
     name lhipjoint
     direction 0.588788 -0.725889 0.355548 
     length 2.37778 
     axis 0 0 0  XYZ
  end
  begin
     id 2 
     name lfemur
     direction 0.34202 -0.939693 0  
     length 6.86393  
     axis 0 0 20  XYZ
    dof rx ry rz
    limits (-160.0 20.0)
           (-70.0 70.0)
           (-60.0 70.0)
  end
  begin
     id 3 
     name ltibia
     direction 0.34202 -0.939693 0   
     length 7.32851   
     axis 0 0 20   XYZ
    dof rx
    limits (-10.0 170.0)
  end
  begin
     id 4 
     name lfoot
     direction 0.0626533 -0.172138 0.983078   
     length 1.98929   
     axis -90 7.62852e-016 20   XYZ
    dof rx rz
    limits (-45.0 90.0)
           (-70.0 20.0)
  end
  begin
     id 5 
     name ltoes
     direction 1.53647e-011 -4.21734e-011 1   
     length 1.00479   
     axis -90 7.62852e-016 20   XYZ
    dof rx
    limits (-90.0 20.0)
  end
  begin
     id 6 
     name rhipjoint
     direction -0.59141 -0.724168 0.354705   
     length 2.38343  
     axis 0 0 0  XYZ 
  end
  begin
     id 7 
     name rfemur
     direction -0.34202 -0.939693 0   
     length 6.95589   
     axis 0 0 -20   XYZ
    dof rx ry rz
    limits (-160.0 20.0)
           (-70.0 70.0)
           (-70.0 60.0)
  end
  begin
     id 8 
     name rtibia
     direction -0.34202 -0.939693 0   
     length 7.32327   
     axis 0 0 -20   XYZ
    dof rx
    limits (-10.0 170.0)
 end
 begin
     id 9 
     name rfoot
     direction -0.0660461 -0.18146 0.981178   
     length 1.85272  
     axis -90 -7.62852e-016 -20   XYZ
    dof rx rz
    limits (-45.0 90.0)
           (-20.0 70.0)
  end
  begin
     id 10 
     name rtoes
     direction -1.53586e-011 -4.21988e-011 1   
     length 0.93746   
     axis -90 -7.62852e-016 -20   XYZ
    dof rx
    limits (-90.0 20.0)
  end
  begin
     id 11 
     name lowerback
     direction -0.0107982 0.991059 0.13299   
     length 1.98691   
     axis 0 0 0   XYZ
    dof rx ry rz
    limits (-20.0 45.0)
           (-30.0 30.0)
           (-30.0 30.0)
  end
  begin
     id 12 
     name upperback
     direction 0.0076296 0.999916 0.0104576   
     length 1.99501   
     axis 0 0 0   XYZ
    dof rx ry rz
    limits (-20.0 45.0)
           (-30.0 30.0)
           (-30.0 30.0)
  end
  begin
     id 13 
     name thorax
     direction 0.01176 0.998615 -0.0512909   
     length 2.03144   
     axis 0 0 0   XYZ
    dof rx ry rz
    limits (-20.0 45.0)
           (-30.0 30.0)
           (-30.0 30.0)
  end
  begin
     id 14 
     name lowerneck
     direction -0.0171909 0.999644 0.0204011   
     length 1.71818   
     axis 0 0 0   XYZ
    dof rx ry rz
    limits (-20.0 45.0)
           (-30.0 30.0)
           (-30.0 30.0)
  end
  begin
     id 15 
     name upperneck
     direction 0.0250902 0.997482 -0.0663316   
     length 1.66199   
     axis 0 0 0   XYZ
    dof rx ry rz
    limits (-20.0 45.0)
           (-30.0 30.0)
           (-30.0 30.0)
  end
  begin
     id 16
     name head
     direction 0.00881535 0.99956 -0.0283365  
     length 1.81545  
     axis 0 0 0   XYZ
    dof rx ry rz
    limits (-20.0 45.0)
           (-30.0 30.0)
           (-30.0 30.0)
  end
  begin
     id 17 
     name lclavicle
     direction 0.840411 0.486876 -0.238035  
     length 3.30409  
     axis 0 0 0   XYZ
    dof ry rz
    limits (-20.0 10.0)
           (0.0 20.0)
  end
  begin
     id 18 
     name lhumerus
     direction 1 -4.48977e-011 -5.16239e-027   
     length 4.62672   
     axis 180 -30 -90   XYZ
    dof rx ry rz
    limits (-60.0 90.0)
           (-90.0 90.0)
           (-90.0 90.0)
  end
  begin
     id 19
     name lradius
     direction 1 -4.48977e-011 -8.71171e-027   
     length 3.11018   
     axis 180 -30 -90   XYZ
    dof rx
    limits (-10.0 170.0)
  end
  begin
     id 20
     name lwrist
     direction 1 -4.48912e-011 -1.03764e-026   
     length 1.55509   
     axis 9.09556e-015 90 90   XYZ
    dof ry
    limits (-180.0 0.0)
 end
  begin
     id 21 
     name lhand
     direction 1 -4.49072e-011 -2.07528e-026   
     length 0.743834   
     axis 1.3242e-014 90 90   XYZ
    dof rx rz
    limits (-90.0 90.0)
           (-45.0 45.0)
  end
  begin
     id 22 
     name lfingers
     direction 1 -4.48909e-011 -4.15056e-026   
     length 0.599698   
     axis 2.64841e-014 90 90   XYZ
    dof rx
    limits (0.0 90.0)
  end
  begin
     id 23
     name lthumb
     direction 0.707107 -6.35013e-011 0.707107   
     length 0.86105   
     axis -90 45 2.85299e-015   XYZ
    dof rx rz
    limits (-45.0 45.0)
           (-45.0 45.0)
  end
  begin
     id 24 
     name rclavicle
     direction -0.835208 0.500237 -0.228452   
     length 3.2716  
     axis 0 0 0   XYZ 
    dof ry rz
    limits (-10.0 20.0)
           (-20.0 0.0)
  end
  begin
     id 25 
     name rhumerus
     direction -1 -4.48978e-011 -5.1953e-028  
     length 4.55919   
     axis 180 30 90   XYZ
    dof rx ry rz
    limits (-90.0 60.0)
           (-90.0 90.0)
           (-90.0 90.0)
  end
  begin
     id 26 
     name rradius
     direction -1 -4.48961e-011 -5.99546e-027   
     length 3.22748   
     axis 180 30 90   XYZ
    dof rx
    limits (-10.0 170.0)
  end
  begin
     id 27 
     name rwrist
     direction -1 -4.48986e-011 -1.03764e-026   
     length 1.61374   
     axis 9.09556e-015 -90 -90   XYZ
    dof ry
    limits (-180.0 0.0)
  end
  begin
     id 28
     name rhand
     direction -1 -4.4899e-011 -2.07528e-026   
     length 0.700882   
     axis 1.3242e-014 -90 -90   XYZ
    dof rx rz
    limits (-90.0 90.0)
           (-45.0 45.0)
  end
  begin
     id 29
     name rfingers
     direction -1 -4.48991e-011 -4.15056e-026   
     length 0.565069   
     axis 2.64841e-014 -90 -90   XYZ
    dof rx
    limits (0.0 90.0)
  end
  begin
     id 30
     name rthumb
     direction -0.707107 -6.34804e-011 0.707107   
     length 0.811329   
     axis -90 -45 -2.85299e-015   XYZ
    dof rx rz
    limits (-45.0 45.0)
           (-45.0 45.0)
  end
:hierarchy
  begin
    root lhipjoint rhipjoint lowerback
    lhipjoint lfemur
    lfemur ltibia
    ltibia lfoot
    lfoot ltoes
    rhipjoint rfemur
    rfemur rtibia
    rtibia rfoot
    rfoot rtoes
    lowerback upperback
    upperback thorax
    thorax lowerneck lclavicle rclavicle
    lowerneck upperneck
    upperneck head
    lclavicle lhumerus
    lhumerus lradius
    lradius lwrist
    lwrist lhand lthumb
    lhand lfingers
    rclavicle rhumerus
    rhumerus rradius
    rradius rwrist
    rwrist rhand rthumb
    rhand rfingers
  end

#!OML:ASF F:\VICON\USERDATA\INSTALL\SteveWalk\SteveWalk.ASF
:FULLY-SPECIFIED
:DEGREES
190
root -0.475856 15.98 -2.85854 18.4302 -5.47857 2.10773
lowerback -18.104 1.64008 -4.99984
upperback -4.81231 3.13825 -1.35307
thorax 4.75698 1.51207 2.07077
lowerneck -5.77806 -1.05853 -0.115334
upperneck 8.47113 -1.55149 1.52889
head 3.79485 -0.703494 0.447099
rclavicle -2.61433e-014 -8.54774e-015
rhumerus -24.2919 5.30397 -83.7516
rradius 67.1206
rwrist -18.8108
rhand -17.6356 -34.4747
rfingers 7.12502
rthumb 8.62204 -64.2787
lclavicle -2.61433e-014 -8.54774e-015
lhumerus -75.9308 28.0142 34.3722
lradius 7.81987
lwrist -55.0412
lhand -10.9661 -11.8041
lfingers 7.12502
lthumb 15.0532 17.6287
rfemur -3.31606 -4.05669 16.4696
rtibia 37.6575
rfoot 5.11736 18.2203
rtoes -12.54
lfemur -51.465 0.228477 -24.4152
ltibia 32.5092
lfoot -2.8528 -1.44358
ltoes -10.4388
191
root -0.482126 15.9856 -2.62008 18.1351 -5.51942 2.49072
lowerback -17.6739 1.55214 -5.66382
upperback -4.95474 3.11431 -1.5015
thorax 4.34792 1.51195 2.25927
lowerneck -5.57387 -1.08216 -0.423953
upperneck 8.50387 -1.60403 2.0646
head 3.7772 -0.716896 0.67726
rclavicle -8.72478e-015 8.94531e-015
rhumerus -25.7531 4.68449 -83.881
rradius 66.4206
rwrist -20.4493
rhand -17.1644 -32.0528
rfingers 7.12502
rthumb 9.07668 -61.8375
lclavicle -8.72478e-015 8.94531e-015
lhumerus -76.07 28.3632 33.3874
lradius 7.71911
lwrist -55.5133
lhand -10.566 -10.9558
lfingers 7.12502
lthumb 15.4385 18.4476
rfemur -4.47841 -3.74185 15.8974
rtibia 40.7524
rfoot 8.5168 18.0017
rtoes -11.4716
lfemur -50.9574 -0.172081 -24.6675
ltibia 33.7619
lfoot -3.42351 -1.59977
ltoes -5.19436
192
root -0.477295 15.9935 -2.37855 17.8879 -5.49387 3.07595
lowerback -17.5505 1.45307 -6.27392
upperback -4.96679 3.09694 -1.793
thorax 4.25211 1.50389 2.28343
lowerneck -5.60791 -1.12178 -0.405805
upperneck 8.6286 -1.68619 2.3288
head 3.83278 -0.74423 0.757865
rclavicle -5.31221e-014 -5.1684e-015
rhumerus -27.0222 4.37347 -84.2759
rradius 65.8448
rwrist -21.5426
rhand -17.7677 -31.6128
rfingers 7.12502
rthumb 8.49456 -61.422
lclavicle -5.31221e-014 -5.1684e-015
lhumerus -76.1271 28.6533 32.381
lradius 7.8989
lwrist -55.7264
lhand -10.0961 -11.0866
lfingers 7.12502
lthumb 15.8911 18.2814
rfemur -5.64505 -3.77226 15.0125
rtibia 43.8241
rfoot 11.407 18.5389
rtoes -10.6048
lfemur -50.364 -0.315607 -25.5736
ltibia 34.8969
lfoot -4.17892 -1.91488
ltoes -5.11196
193
root -0.479015 16.0071 -2.14337 17.6168 -5.63098 3.41858
lowerback -17.4984 1.40247 -6.7525
upperback -4.87639 3.12341 -1.96287
thorax 4.30056 1.51116 2.37657
lowerneck -5.73422 -1.16783 -0.34597
upperneck 8.77212 -1.76439 2.40288
head 3.91026 -0.775641 0.767957
rclavicle 4.56164e-014 -2.54444e-014
rhumerus -28.0646 4.11659 -84.6634
rradius 65.0357
rwrist -21.5503
rhand -18.7383 -32.8055
rfingers 7.12502
rthumb 7.55776 -62.6504
lclavicle 4.56164e-014 -2.54444e-014
lhumerus -76.2221 29.1582 31.3786
lradius 8.23973
lwrist -55.9619
lhand -10.0378 -11.7251
lfingers 7.12502
lthumb 15.9472 17.6383
rfemur -6.94545 -3.49763 14.4282
rtibia 46.8728
rfoot 14.233 18.8864
rtoes -9.9239
lfemur -49.6721 -0.150151 -26.2703
ltibia 35.8567
lfoot -5.11801 -1.92283
ltoes -6.36395
194
root -0.453468 16.0282 -1.91596 17.5089 -4.70619 3.18566
lowerback -17.171 1.1759 -6.06916
upperback -4.9211 2.68229 -1.99262
thorax 4.15373 1.30259 1.86264
lowerneck -5.84445 -1.15592 -0.371814
upperneck 9.04554 -1.75766 2.45434
head 4.03046 -0.767945 0.790662
rclavicle -1.44965e-014 -1.82882e-014
rhumerus -29.3301 3.87041 -85.1045
rradius 64.1008
rwrist -20.8888
rhand -19.1353 -33.2888
rfingers 7.12502
rthumb 7.17451 -63.1472
lclavicle -1.44965e-014 -1.82882e-014
lhumerus -76.4308 29.9158 30.2795
lradius 8.46376
lwrist -56.3028
lhand -9.94089 -11.6415
lfingers 7.12502
lthumb 16.0406 17.7145
rfemur -8.17975 -4.33051 14.6047
rtibia 49.839
rfoot 16.1534 19.165
rtoes -11.1509
lfemur -49.0007 -0.713943 -26.2221
ltibia 36.5846
lfoot -5.92548 -2.13388
ltoes -6.05487
195
root -0.446806 16.0587 -1.68991 17.1584 -4.74376 3.42003
lowerback -16.7301 1.10376 -6.22979
upperback -4.91786 2.58642 -2.1356
thorax 3.92824 1.26155 1.7683
lowerneck -5.95581 -1.09703 -0.422778
upperneck 9.33728 -1.68734 2.52094
head 4.15755 -0.728827 0.826712
rclavicle -1.94406e-014 1.15295e-014
rhumerus -30.5381 3.63576 -85.6407
rradius 63.1344
rwrist -21.1868
rhand -18.3226 -30.8315
rfingers 7.12502
rthumb 7.95894 -60.6617
lclavicle -1.94406e-014 1.15295e-014
lhumerus -76.6935 30.587 29.1147
lradius 8.75965
lwrist -56.8365
lhand -9.53951 -11.8048
lfingers 7.12502
lthumb 16.427 17.5197
rfemur -9.58431 -4.32357 14.2287
rtibia 52.8428
rfoot 20.3724 17.1326
rtoes -9.46211
lfemur -47.9186 -0.772319 -26.6549
ltibia 37.0702
lfoot -6.75683 -1.82183
ltoes -7.33207
